<svg width="150" height="46" viewBox="0 0 150 46" fill="none" xmlns="http://www.w3.org/2000/svg">
<g id="Logo.svg" clip-path="url(#clip0_101_32809)">
<path id="path8" fill-rule="evenodd" clip-rule="evenodd" d="M93.057 35.7337C84.3403 42.1511 71.7059 45.575 60.8279 45.575C45.5752 45.575 31.8439 39.9402 21.4556 30.5685C20.6394 29.8315 21.3707 28.8272 22.3501 29.4011C33.5611 35.9163 47.423 39.8359 61.742 39.8359C71.399 39.8359 82.0224 37.8402 91.7903 33.6989C93.266 33.0728 94.5 34.6641 93.057 35.7337Z" fill="#FF9900"/>
<path id="path10" fill-rule="evenodd" clip-rule="evenodd" d="M96.6809 31.5925C95.5709 30.1707 89.3157 30.9207 86.5081 31.2533C85.6527 31.3577 85.5221 30.6142 86.2926 30.0794C91.2745 26.5772 99.4494 27.5881 100.403 28.762C101.356 29.9425 100.155 38.1272 95.4729 42.0338C94.7547 42.6337 94.0691 42.3142 94.3891 41.5185C95.4403 38.8968 97.7974 33.0207 96.6809 31.5925Z" fill="#FF9900"/>
<path id="path12" fill-rule="evenodd" clip-rule="evenodd" d="M86.7039 5.35555V1.9512C86.7039 1.43598 87.0957 1.09033 87.5658 1.09033H102.825C103.315 1.09033 103.707 1.44251 103.707 1.9512V4.86642C103.7 5.35555 103.289 5.99468 102.557 7.00554L94.6502 18.2816C97.5885 18.2099 100.69 18.6468 103.354 20.1468C103.955 20.486 104.118 20.9816 104.164 21.4708V25.1034C104.164 25.599 103.615 26.1794 103.041 25.8794C98.3459 23.4207 92.1103 23.1534 86.9194 25.9055C86.3905 26.1925 85.8355 25.6186 85.8355 25.1229V21.6729C85.8355 21.1186 85.8421 20.1729 86.3971 19.3316L95.5578 6.20989H87.5854C87.0957 6.20989 86.7039 5.86424 86.7039 5.35555Z" fill="black"/>
<path id="path14" fill-rule="evenodd" clip-rule="evenodd" d="M31.0408 26.5968H26.3984C25.9544 26.5642 25.6018 26.2316 25.5692 25.8076V2.00985C25.5692 1.53376 25.9674 1.1555 26.4637 1.1555H30.7927C31.2432 1.17505 31.6023 1.52071 31.635 1.95115V5.06202H31.7199C32.8494 2.05549 34.9715 0.65332 37.8314 0.65332C40.737 0.65332 42.5521 2.05549 43.858 5.06202C44.9811 2.05549 47.5341 0.65332 50.2699 0.65332C52.2157 0.65332 54.3442 1.45549 55.6436 3.25549C57.1127 5.25766 56.8124 8.16636 56.8124 10.7164L56.8058 25.7359C56.8058 26.212 56.4075 26.5968 55.9113 26.5968H51.2754C50.8118 26.5642 50.4397 26.1924 50.4397 25.7359V13.1229C50.4397 12.1185 50.5311 9.61419 50.3091 8.66201C49.963 7.06419 48.9248 6.61418 47.5798 6.61418C46.4567 6.61418 45.2814 7.36418 44.8048 8.56419C44.3281 9.76419 44.3738 11.7729 44.3738 13.1229V25.7359C44.3738 26.212 43.9755 26.5968 43.4793 26.5968H38.8434C38.3733 26.5642 38.0077 26.1924 38.0077 25.7359L38.0011 13.1229C38.0011 10.4685 38.4386 6.56201 35.1413 6.56201C31.8047 6.56201 31.9353 10.3707 31.9353 13.1229V25.7359C31.9353 26.212 31.537 26.5968 31.0408 26.5968Z" fill="black"/>
<path id="path16" fill-rule="evenodd" clip-rule="evenodd" d="M116.844 0.65332C123.732 0.65332 127.46 6.56201 127.46 14.0751C127.46 21.3337 123.34 27.0924 116.844 27.0924C110.079 27.0924 106.397 21.1837 106.397 13.8207C106.397 6.41201 110.125 0.65332 116.844 0.65332ZM116.883 5.51202C113.461 5.51202 113.246 10.1685 113.246 13.0707C113.246 15.9794 113.2 22.1881 116.844 22.1881C120.441 22.1881 120.611 17.1794 120.611 14.1272C120.611 12.1185 120.526 9.71853 119.919 7.81418C119.397 6.15767 118.359 5.51202 116.883 5.51202Z" fill="black"/>
<path id="path18" fill-rule="evenodd" clip-rule="evenodd" d="M136.393 26.5968H131.77C131.306 26.5642 130.934 26.1924 130.934 25.7359L130.928 1.93158C130.967 1.49462 131.352 1.1555 131.822 1.1555H136.125C136.53 1.17505 136.863 1.44897 136.954 1.82071V5.45984H137.039C138.338 2.20549 140.16 0.65332 143.366 0.65332C145.449 0.65332 147.48 1.40332 148.786 3.45767C150 5.36201 150 8.56419 150 10.8664V25.8468C149.948 26.2642 149.563 26.5968 149.105 26.5968H144.45C144.026 26.5642 143.673 26.2511 143.627 25.8468V12.9207C143.627 10.3185 143.928 6.50984 140.722 6.50984C139.592 6.50984 138.554 7.26636 138.038 8.41418C137.385 9.86853 137.3 11.3164 137.3 12.9207V25.7359C137.294 26.212 136.889 26.5968 136.393 26.5968Z" fill="black"/>
<path id="path28" fill-rule="evenodd" clip-rule="evenodd" d="M74.5397 15.2294C74.5397 17.0359 74.5854 18.5424 73.6713 20.1468C72.9334 21.4511 71.7581 22.2533 70.4588 22.2533C68.6763 22.2533 67.6316 20.8968 67.6316 18.8946C67.6316 14.9424 71.177 14.225 74.5397 14.225V15.2294ZM79.2213 26.5316C78.9144 26.8055 78.4704 26.825 78.1243 26.6424C76.5834 25.3642 76.3026 24.7707 75.4603 23.5511C72.9138 26.1468 71.1052 26.9229 67.8078 26.9229C63.8967 26.9229 60.8606 24.5163 60.8606 19.6968C60.8606 15.9337 62.8977 13.3707 65.8099 12.1185C68.3302 11.0098 71.8495 10.8142 74.5397 10.5077V9.90765C74.5397 8.80548 74.6245 7.50113 73.9716 6.54896C73.4101 5.69461 72.3262 5.34244 71.3664 5.34244C69.5969 5.34244 68.0233 6.24896 67.6381 8.12722C67.5597 8.54461 67.2529 8.95548 66.8284 8.97505L62.3297 8.49243C61.951 8.40766 61.5266 8.10113 61.6376 7.5207C62.6692 2.06853 67.6054 0.425049 72.0193 0.425049C74.2785 0.425049 77.2298 1.02505 79.0123 2.73374C81.2715 4.84026 81.056 7.65113 81.056 10.7098V17.9359C81.056 20.1076 81.9571 21.0598 82.8059 22.2337C83.0997 22.6511 83.165 23.1533 82.7863 23.4663C81.8395 24.2555 80.1549 25.7229 79.2278 26.5446L79.2213 26.5316Z" fill="black"/>
<path id="path30" fill-rule="evenodd" clip-rule="evenodd" d="M13.6791 15.2294C13.6791 17.0359 13.7248 18.5424 12.8107 20.1468C12.0729 21.4511 10.9041 22.2533 9.59822 22.2533C7.81569 22.2533 6.77752 20.8968 6.77752 18.8946C6.77752 14.9424 10.323 14.225 13.6791 14.225V15.2294ZM18.3607 26.5316C18.0538 26.8055 17.6098 26.825 17.2637 26.6424C15.7228 25.3642 15.4486 24.7707 14.5997 23.5511C12.0533 26.1468 10.2512 26.9229 6.94728 26.9229C3.0427 26.9229 0 24.5163 0 19.6968C0 15.9337 2.0437 13.3707 4.94929 12.1185C7.46964 11.0098 10.989 10.8142 13.6791 10.5077V9.90765C13.6791 8.80548 13.764 7.50113 13.1176 6.54896C12.5495 5.69461 11.4656 5.34244 10.5123 5.34244C8.74287 5.34244 7.16275 6.24896 6.77752 8.12722C6.69917 8.54461 6.39228 8.95548 5.9744 8.97505L1.46912 8.49243C1.09041 8.40766 0.672527 8.10113 0.776998 7.5207C1.81517 2.06853 6.74487 0.425049 11.1588 0.425049C13.4179 0.425049 16.3692 1.02505 18.1517 2.73374C20.4109 4.84026 20.1954 7.65113 20.1954 10.7098V17.9359C20.1954 20.1076 21.0965 21.0598 21.9453 22.2337C22.2457 22.6511 22.311 23.1533 21.9323 23.4663C20.9855 24.2555 19.3009 25.7229 18.3737 26.5446L18.3607 26.5316Z" fill="black"/>
</g>
<defs>
<clipPath id="clip0_101_32809">
<rect width="150" height="45.15" fill="white" transform="translate(0 0.425049)"/>
</clipPath>
</defs>
</svg>
