<svg width="40" height="40" viewBox="0 0 40 40" fill="none" xmlns="http://www.w3.org/2000/svg">
<g id="icomoon-free:amazon">
<path id="Vector" d="M36.1575 34.5775C31.775 37.8125 25.43 39.53 19.9625 39.53C12.2975 39.53 5.39999 36.7025 0.182491 31.9825C-0.225009 31.615 0.134991 31.1075 0.627491 31.3975C6.25999 34.68 13.23 36.6475 20.425 36.6475C25.2775 36.6475 30.6125 35.64 35.5275 33.5525C36.2625 33.24 36.8875 34.045 36.16 34.575L36.1575 34.5775Z" fill="white"/>
<path id="Vector_2" d="M37.9775 32.5C37.415 31.7825 34.275 32.1575 32.86 32.3275C32.43 32.375 32.3675 32.0075 32.75 31.7325C35.2575 29.975 39.3675 30.4825 39.845 31.0675C40.33 31.6625 39.72 35.7775 37.3675 37.7475C37.0075 38.0525 36.665 37.8875 36.82 37.49C37.36 36.17 38.54 33.2175 37.9775 32.4975V32.5ZM27.6325 29.595L27.64 29.6025C28.6075 28.75 30.35 27.2275 31.335 26.4075C31.725 26.095 31.655 25.5725 31.35 25.135C30.4675 23.915 29.53 22.925 29.53 20.675V13.175C29.53 9.995 29.75 7.08 27.4125 4.8925C25.5675 3.1275 22.505 2.5025 20.1625 2.5025C15.585 2.5025 10.475 4.2125 9.40497 9.87C9.28747 10.4725 9.73247 10.7925 10.1225 10.8775L14.7875 11.385C15.225 11.3625 15.5375 10.9325 15.6225 10.495C16.02 8.55 17.655 7.605 19.49 7.605C20.4825 7.605 21.6075 7.965 22.1925 8.855C22.865 9.8475 22.7775 11.2 22.7775 12.3475V12.9725C19.9875 13.285 16.34 13.4875 13.73 14.6375C10.715 15.9425 8.59747 18.5975 8.59747 22.505C8.59747 27.505 11.745 30.005 15.8 30.005C19.2225 30.005 21.09 29.2 23.73 26.4975C24.605 27.7625 24.8875 28.38 26.4875 29.7075C26.6654 29.8099 26.8707 29.8544 27.075 29.8346C27.2794 29.8149 27.4725 29.732 27.6275 29.5975L27.6325 29.595ZM22.7825 17.86C22.7825 19.735 22.83 21.2975 21.885 22.9625C21.12 24.3225 19.9075 25.15 18.5575 25.15C16.715 25.15 15.635 23.7425 15.635 21.665C15.635 17.5625 19.315 16.82 22.7925 16.82V17.86H22.7825Z" fill="white"/>
</g>
</svg>
