<svg width="40" height="40" viewBox="0 0 40 40" fill="none" xmlns="http://www.w3.org/2000/svg">
<g id="grommet-icons:amex">
<path id="Vector" fill-rule="evenodd" clip-rule="evenodd" d="M7.19001 19.9417L5.82334 16.6133L4.46501 19.9417H7.19001ZM20.2883 23.5433L20.28 17.0067L17.3867 23.5433H15.6367L12.7333 17V23.5433H8.67667L7.91001 21.6817H3.75501L2.98001 23.5433H0.813339L4.38667 15.1967H7.35001L10.7433 23.1V15.1967H14L16.6117 20.8583L19.01 15.1967H22.3333V23.5433H20.2883ZM25.51 21.8367V20.175H29.89V18.4717H25.51V16.9533H30.5117L32.695 19.3867L30.415 21.8367H25.51ZM39.0283 23.5767H36.435L33.9783 20.8117L31.425 23.5767H23.5217V15.2267H31.5467L34.0017 17.9633L36.54 15.2267H39.1467L35.2683 19.4017L39.0283 23.5767Z" fill="white"/>
</g>
</svg>
