<svg width="76" height="94" viewBox="0 0 76 94" fill="none" xmlns="http://www.w3.org/2000/svg">
<g id="Logo.svg" clip-path="url(#clip0_101_32819)">
<g id="Group">
<path id="Vector" d="M73.1506 32.3545C67.006 36.1515 63.2108 42.6607 63.2108 49.8931C63.2108 58.0295 68.0904 65.4427 75.5 68.5165C74.0542 73.2176 71.8855 77.557 69.1747 81.5348C65.1988 87.1399 61.0422 92.9259 54.8976 92.9259C48.753 92.9259 46.9458 89.3097 39.7169 89.3097C32.6687 89.3097 30.1386 93.1067 24.3554 93.1067C18.5723 93.1067 14.5964 87.8632 10.0783 81.354C4.11446 72.3135 0.680723 61.8265 0.5 50.7971C0.5 32.8969 12.0663 23.314 23.6325 23.314C29.7771 23.314 34.8373 27.2918 38.6325 27.2918C42.247 27.2918 48.0301 23.1332 54.8976 23.1332C62.1265 22.9524 68.994 26.3878 73.1506 32.3545ZM51.6446 15.5392C54.7169 11.923 56.3434 7.40272 56.5241 2.70165C56.5241 2.15922 56.5241 1.43598 56.3434 0.893555C51.1024 1.43598 46.2229 3.96733 42.7892 7.94515C39.7169 11.3805 37.9096 15.72 37.7289 20.421C37.7289 20.9635 37.7289 21.5059 37.9096 22.0483C38.2711 22.0483 38.8133 22.2291 39.1747 22.2291C44.0542 21.8675 48.5723 19.3362 51.6446 15.5392Z" fill="black"/>
</g>
</g>
<defs>
<clipPath id="clip0_101_32819">
<rect width="75" height="92.2131" fill="white" transform="translate(0.5 0.893555)"/>
</clipPath>
</defs>
</svg>
