<svg width="40" height="40" viewBox="0 0 40 40" fill="none" xmlns="http://www.w3.org/2000/svg">
<g id="simple-icons:appstore" clip-path="url(#clip0_101_32627)">
<path id="Vector" d="M14.6817 24.8667L24.865 6.47166C25.005 6.21833 25.145 5.96833 25.2717 5.70666C25.3867 5.47 25.4833 5.23166 25.5467 4.97333C25.68 4.43 25.6433 3.86333 25.4367 3.345C25.236 2.83433 24.8729 2.40387 24.4033 2.12C23.9426 1.84105 23.4006 1.72758 22.8667 1.79833C22.3333 1.87 21.845 2.12166 21.46 2.515C21.2767 2.69833 21.1267 2.90666 20.9883 3.12833C20.835 3.37166 20.6967 3.62499 20.5567 3.87833L19.9133 5.03999L19.2683 3.87666C19.1283 3.625 18.99 3.37166 18.8367 3.12833C18.7016 2.90724 18.5435 2.70109 18.365 2.51333C17.9893 2.12432 17.494 1.87256 16.9583 1.79833C16.425 1.72797 15.8836 1.84143 15.4233 2.12C14.9538 2.40387 14.5907 2.83433 14.39 3.345C14.184 3.86294 14.1456 4.43239 14.28 4.97333C14.3433 5.23166 14.44 5.47 14.5533 5.70666C14.68 5.96833 14.82 6.21833 14.96 6.47166L17.04 10.2283L8.93666 24.865H3.38332C3.10332 24.865 2.82332 24.865 2.54499 24.8817C2.29166 24.8967 2.04499 24.9283 1.79832 25C1.28166 25.15 0.828323 25.4667 0.501657 25.9133C0.17508 26.3628 -0.000951478 26.9041 -0.00125084 27.4597C-0.0015502 28.0153 0.173898 28.5568 0.49999 29.0067C0.828323 29.4533 1.27999 29.7683 1.79832 29.92C2.04499 29.9917 2.29166 30.0233 2.54499 30.0383C2.82332 30.055 3.10332 30.055 3.38332 30.055H25.2117C25.278 29.9092 25.3337 29.7588 25.3783 29.605C26.07 27.245 24.3517 24.865 21.9867 24.865L14.6817 24.8667ZM5.18832 30.9033L3.86832 33.4033C3.73166 33.6633 3.59332 33.92 3.46999 34.1883C3.35618 34.4299 3.26684 34.6823 3.20332 34.9417C3.06959 35.4969 3.10677 36.0796 3.30999 36.6133C3.51166 37.1433 3.86666 37.585 4.32166 37.8717C4.77666 38.1583 5.30332 38.275 5.82332 38.2C6.34666 38.1267 6.82332 37.87 7.19999 37.4667C7.37999 37.275 7.52666 37.0633 7.66332 36.8367C7.81332 36.5867 7.94832 36.3267 8.08499 36.0667L9.99999 32.44C9.84999 32.19 8.42166 29.99 5.18832 30.9033ZM39.4983 25.8933C39.1768 25.4582 38.7203 25.1417 38.2 24.9933C37.9564 24.9257 37.7059 24.886 37.4533 24.875C37.1733 24.8583 36.895 24.8583 36.615 24.8583H31.08L23.7633 11.8333C22.803 12.8409 22.1768 14.1202 21.97 15.4967C21.7014 17.2183 22.022 18.9801 22.88 20.4967L31.67 36.1517C31.81 36.4017 31.9483 36.6517 32.1017 36.8917C32.2417 37.1083 32.3917 37.3133 32.5733 37.4983C32.9583 37.885 33.4467 38.1317 33.9817 38.2033C34.5167 38.275 35.0533 38.1633 35.5183 37.8867C35.986 37.6069 36.3494 37.182 36.5533 36.6767C36.7617 36.165 36.7967 35.6067 36.6633 35.07C36.5974 34.8199 36.5052 34.5774 36.3883 34.3467C36.2633 34.0883 36.1217 33.8417 35.9817 33.5917L33.955 29.9817H36.615C36.895 29.9817 37.1733 29.9817 37.4533 29.9667C37.7067 29.9517 37.9533 29.92 38.2 29.85C38.7211 29.7015 39.1783 29.3844 39.5 28.9483C39.8257 28.5061 40.001 27.9709 40 27.4217C40.001 26.8724 39.8257 26.3373 39.5 25.895" fill="white"/>
</g>
<defs>
<clipPath id="clip0_101_32627">
<rect width="40" height="40" fill="white"/>
</clipPath>
</defs>
</svg>
