<svg width="40" height="40" viewBox="0 0 40 40" fill="none" xmlns="http://www.w3.org/2000/svg">
<g id="simple-icons:doordash" clip-path="url(#clip0_101_32640)">
<path id="Vector" d="M38.4516 14.015C37.5838 12.385 36.2878 11.0226 34.703 10.0746C33.1183 9.12655 31.305 8.62882 29.4583 8.63501H0.973317C0.780363 8.63662 0.592164 8.69507 0.43224 8.80304C0.272316 8.91102 0.14776 9.06373 0.0741382 9.24209C0.00051619 9.42046 -0.0189066 9.61657 0.018297 9.80591C0.0555007 9.99525 0.147681 10.1694 0.283317 10.3067L6.48998 16.55C6.76125 16.8228 7.08381 17.0392 7.43907 17.1868C7.79433 17.3344 8.17528 17.4103 8.55998 17.41H28.6416C29.3286 17.4032 29.9901 17.6695 30.4806 18.1503C30.9712 18.6312 31.2506 19.2873 31.2575 19.9742C31.2643 20.6611 30.998 21.3226 30.5172 21.8131C30.0363 22.3037 29.3802 22.5832 28.6933 22.59H14.85C14.6569 22.5913 14.4685 22.6495 14.3083 22.7574C14.1481 22.8652 14.0233 23.0179 13.9495 23.1963C13.8756 23.3748 13.8561 23.571 13.8932 23.7605C13.9304 23.95 14.0226 24.1243 14.1583 24.2617L20.3667 30.5067C20.6379 30.7795 20.9605 30.9959 21.3157 31.1435C21.671 31.2911 22.0519 31.3669 22.4367 31.3667H28.6983C36.8433 31.3667 43.005 22.6583 38.4516 14.0117" fill="white"/>
</g>
<defs>
<clipPath id="clip0_101_32640">
<rect width="40" height="40" fill="white"/>
</clipPath>
</defs>
</svg>
