<svg width="100" height="40" viewBox="0 0 100 40" fill="none" xmlns="http://www.w3.org/2000/svg">
<g id="ebay_inc_logo.svg" clip-path="url(#clip0_101_32823)">
<g id="Group">
<path id="Vector" d="M63.323 21.2254C58.7776 21.3818 55.9563 22.2163 55.9563 25.1889C55.9563 27.1185 57.5237 29.2045 61.4422 29.2045C66.7191 29.2045 69.4881 26.3362 69.4881 21.6426V21.1211C67.6595 21.1211 65.3606 21.1732 63.323 21.2254ZM74.5038 27.4314C74.5038 28.8916 74.556 30.2997 74.6605 31.6035H70.0106C69.9061 30.5604 69.8539 29.4653 69.8539 28.4744C67.346 31.5513 64.3157 32.4379 60.1882 32.4379C53.9709 32.4379 50.6794 29.2045 50.6794 25.3975C50.6794 19.9216 55.1726 18.0442 62.9573 17.8355C65.0994 17.7834 67.5028 17.7834 69.4881 17.7834V17.2619C69.4881 13.6113 67.137 12.0989 63.0618 12.0989C60.0315 12.0989 57.8371 13.3505 57.5759 15.4887H52.299C52.8737 10.1172 58.5163 8.76123 63.4798 8.76123C69.4359 8.76123 74.4516 10.8994 74.4516 17.1576V27.4314H74.5038Z" fill="#F5AF02"/>
<path id="Vector_2" d="M19.9583 18.566C19.7493 13.8724 16.4055 12.1514 12.7483 12.1514C8.88203 12.0992 5.74723 14.081 5.22477 18.566H19.9583ZM5.12027 21.9037C5.38151 26.4408 8.5163 29.1527 12.8528 29.1527C15.8308 29.1527 18.4954 27.9532 19.3836 25.2935H24.556C23.5111 30.6129 17.8162 32.4382 12.905 32.4382C3.97085 32.4382 0.000106812 27.536 0.000106812 20.9128C0.000106812 13.6116 4.07534 8.81372 12.9573 8.81372C20.0106 8.81372 25.2352 12.5165 25.2352 20.5478V21.9037H5.12027Z" fill="#E53238"/>
<path id="Vector_3" d="M38.0878 28.9961C42.7378 28.9961 45.9248 25.6584 45.9248 20.5997C45.9248 15.5411 42.7378 12.2034 38.0878 12.2034C33.4379 12.2034 30.2508 15.5411 30.2508 20.5997C30.2508 25.6584 33.4379 28.9961 38.0878 28.9961ZM25.2352 0H30.2508V12.5684C32.7064 9.64798 36.1024 8.81356 39.4462 8.81356C45.0366 8.81356 51.254 12.5684 51.254 20.704C51.254 27.4837 46.3428 32.4381 39.394 32.4381C35.7367 32.4381 32.3407 31.1343 30.1986 28.5789C30.1986 29.6219 30.1463 30.6649 30.0418 31.6558H25.0784C25.1829 30.0913 25.2352 28.1095 25.2352 26.4928V0Z" fill="#0064D2"/>
<path id="Vector_4" d="M100 9.64771L84.4829 40.0519H78.8926L83.3335 31.6034L71.6825 9.64771H77.5341L86.1026 26.8055L94.671 9.64771H100Z" fill="#86B817"/>
</g>
</g>
<defs>
<clipPath id="clip0_101_32823">
<rect width="100" height="40" fill="white"/>
</clipPath>
</defs>
</svg>
