<svg width="40" height="40" viewBox="0 0 40 40" fill="none" xmlns="http://www.w3.org/2000/svg">
<g id="simple-icons:ebay">
<path id="Vector" d="M10.0933 20.22V12.02H12.0933V17.0633C13.0767 15.8917 14.43 15.5533 15.7633 15.5533C17.9967 15.5533 20.4767 17.06 20.4767 20.3117C20.4767 20.7 20.4517 21.0733 20.3767 21.425C20.7767 19.8367 22.5 19.25 25.2033 19.185C26.0533 19.155 27.0283 19.155 27.8033 19.155V18.93C27.8033 17.455 26.8767 16.8567 25.2533 16.8567C24.0533 16.8567 23.1783 17.3567 23.0783 18.2067H20.9533C21.18 16.0567 23.4533 15.5067 25.43 15.5067C27.2033 15.5067 28.755 15.9567 29.455 17.2067L28.7283 15.8067H31.0783L34.5033 22.6817L37.9283 15.805H40L33.8 27.98H31.5567L33.34 24.58L29.4567 17.28C29.6733 17.705 29.79 18.205 29.79 18.83V22.93C29.79 23.5067 29.8067 24.08 29.8567 24.605H28C27.9512 24.1817 27.9256 23.7561 27.9233 23.33C26.9183 24.5533 25.7233 24.93 24.0567 24.93C21.59 24.93 20.27 23.63 20.27 22.105C20.2722 21.8561 20.2928 21.6311 20.3317 21.43C19.8317 23.5067 18.065 24.9067 15.72 24.9067C14.27 24.9067 12.8967 24.3817 12.0533 23.3567C12.0533 23.7567 12.0283 24.18 11.9867 24.58H10.02C10.0533 23.93 10.0867 23.155 10.0867 22.505V20.755H2.03667C2.145 22.58 3.4 23.655 5.125 23.655C6.32167 23.655 7.38333 23.155 7.73833 22.105H9.805C9.405 24.255 7.12167 24.98 5.155 24.98C1.58333 25.015 0 23.0367 0 20.3867C0 17.4633 1.63667 15.5367 5.19333 15.5367C8.00667 15.5367 10.0767 17.0133 10.0933 20.2133V20.2217V20.22ZM25.3217 20.525C23.4967 20.5817 22.3717 20.9133 22.3717 22.1083C22.3717 22.8833 22.9717 23.725 24.5467 23.725C26.6467 23.725 27.7717 22.575 27.7717 20.7017V20.485C27.0217 20.485 26.1217 20.495 25.2983 20.5217H25.3183L25.3217 20.525ZM15.2217 23.65C17.0717 23.65 18.3483 22.3067 18.3483 20.2833C18.3483 18.26 17.0683 16.9167 15.1933 16.9167C13.3433 16.9167 12.0433 18.26 12.0433 20.2833C12.0433 22.3067 13.3183 23.65 15.1683 23.65H15.2183H15.2217ZM7.97167 19.46C7.89833 17.585 6.54833 16.8833 5.09667 16.8833C3.52333 16.8833 2.27333 17.6733 2.07167 19.46H7.97167Z" fill="white"/>
</g>
</svg>
