<svg width="40" height="40" viewBox="0 0 40 40" fill="none" xmlns="http://www.w3.org/2000/svg">
<g id="simple-icons:googleplay">
<path id="Vector" d="M36.6967 22.1633L30.165 25.86L24.3067 20.0383L30.2117 14.17L36.6967 17.84C37.0794 18.0564 37.3978 18.3706 37.6194 18.7504C37.8409 19.1302 37.9576 19.562 37.9576 20.0017C37.9576 20.4413 37.8409 20.8732 37.6194 21.2529C37.3978 21.6327 37.0794 21.9469 36.6967 22.1633ZM2.22832 1.53999C2.10522 1.84043 2.04182 2.16198 2.04166 2.48666V37.515C2.04166 37.8767 2.11666 38.2133 2.24832 38.515L20.84 20.0367L2.22832 1.53999ZM22.5733 18.315L28.0033 12.9183L5.74999 0.324993C5.27282 0.0513804 4.71747 -0.0537031 4.17332 0.0266597L22.5733 18.315ZM22.5733 21.76L4.23999 39.9817C4.73666 40.0417 5.25999 39.955 5.74999 39.6767L27.9567 27.11L22.5733 21.76Z" fill="white"/>
</g>
</svg>
