<svg width="21" height="20" viewBox="0 0 21 20" fill="none" xmlns="http://www.w3.org/2000/svg">
<g id="snapchat">
<circle id="bg" cx="10.5" cy="10" r="8.75" fill="#FFFA37"/>
<path id="stroke" fill-rule="evenodd" clip-rule="evenodd" d="M13.641 5.11594C13.0375 4.3555 12.042 3.75 10.5074 3.75C9.19319 3.76294 6.56486 4.49028 6.56486 7.29611C6.56486 7.70589 6.5973 8.25468 6.62564 8.65883C6.59224 8.64912 6.55117 8.63095 6.48609 8.59975L6.47705 8.59542C6.36197 8.54016 6.18698 8.45614 5.94363 8.45614C5.69778 8.45614 5.46007 8.55245 5.2836 8.69523C5.10818 8.83715 4.95833 9.05531 4.95833 9.31909C4.95833 9.64898 5.14401 9.86802 5.36111 10.0085C5.55395 10.1332 5.79711 10.2129 5.9896 10.2759L6.00864 10.2822C6.21468 10.3497 6.36569 10.4013 6.4698 10.4662C6.55085 10.5167 6.56315 10.5486 6.56467 10.579C6.56362 10.5833 6.56114 10.5926 6.55575 10.6078C6.54463 10.639 6.52615 10.6812 6.49914 10.734C6.44525 10.8392 6.36667 10.9686 6.27319 11.1066C6.08462 11.3851 5.85448 11.6706 5.68257 11.836C5.51301 11.9991 5.23476 12.2018 4.94385 12.3632C4.79958 12.4432 4.6585 12.5095 4.53229 12.555C4.40201 12.602 4.30654 12.62 4.24755 12.62C4.20085 12.62 4.16043 12.6296 4.14279 12.634C4.118 12.6402 4.09234 12.6484 4.06695 12.6579C4.01661 12.6768 3.9566 12.7052 3.89717 12.7452C3.7836 12.8216 3.625 12.9757 3.625 13.2188C3.625 13.3458 3.65479 13.4532 3.70628 13.5464C3.75135 13.6279 3.8093 13.6899 3.84264 13.7255L3.84759 13.7308L3.85682 13.7407C4.04022 13.938 4.3438 14.0753 4.63851 14.1695C4.89174 14.2504 5.17487 14.3107 5.45076 14.347C5.45466 14.3647 5.45873 14.3839 5.46319 14.4049L5.46462 14.4117C5.48199 14.4936 5.505 14.6021 5.53888 14.7021C5.57085 14.7965 5.62874 14.9361 5.74727 15.0355C5.89823 15.1621 6.09568 15.1749 6.2245 15.1744C6.36279 15.1738 6.52425 15.1543 6.67747 15.1359L6.69051 15.1343C6.90609 15.1083 7.13161 15.0815 7.3652 15.0815C7.79147 15.0815 8.06468 15.2596 8.49339 15.5523L8.49628 15.5543C8.64477 15.6557 8.81102 15.7693 9.00001 15.8809C9.63262 16.2548 10.1466 16.2515 10.4379 16.2497C10.4572 16.2496 10.4754 16.2495 10.4926 16.2495C10.5099 16.2495 10.5282 16.2496 10.5476 16.2497C10.8394 16.2516 11.367 16.255 12 15.8809C12.189 15.7693 12.3552 15.6557 12.5037 15.5543L12.5066 15.5523C12.9353 15.2596 13.2085 15.0815 13.6348 15.0815C13.8684 15.0815 14.0939 15.1083 14.3095 15.1343L14.3225 15.1359C14.4757 15.1543 14.6372 15.1738 14.7755 15.1744C14.9043 15.1749 15.1018 15.1621 15.2527 15.0355C15.3713 14.9361 15.4292 14.7965 15.4611 14.7021C15.495 14.6021 15.518 14.4936 15.5354 14.4117L15.5368 14.4049C15.5413 14.3839 15.5453 14.3647 15.5492 14.347C15.8251 14.3107 16.1083 14.2504 16.3615 14.1695C16.6562 14.0753 16.9598 13.938 17.1432 13.7406L17.1524 13.7308L17.1573 13.7255C17.1907 13.6899 17.2486 13.628 17.2937 13.5464C17.3452 13.4532 17.375 13.3458 17.375 13.2188C17.375 12.9757 17.2164 12.8216 17.1028 12.7452C17.0434 12.7052 16.9834 12.6768 16.933 12.6579C16.9077 12.6484 16.882 12.6402 16.8572 12.634C16.8396 12.6296 16.7991 12.62 16.7525 12.62C16.6935 12.62 16.598 12.602 16.4677 12.555C16.3415 12.5095 16.2004 12.4432 16.0562 12.3632C15.7652 12.2018 15.487 11.9991 15.3174 11.836C15.1455 11.6706 14.9154 11.3851 14.7268 11.1066C14.6333 10.9686 14.5548 10.8392 14.5009 10.734C14.4739 10.6812 14.4554 10.639 14.4443 10.6078C14.4389 10.5926 14.4364 10.5833 14.4353 10.579C14.4368 10.5486 14.4492 10.5167 14.5302 10.4662C14.6343 10.4013 14.7853 10.3497 14.9914 10.2822L15.0104 10.2759C15.2029 10.2129 15.446 10.1332 15.6389 10.0085C15.856 9.86802 16.0417 9.64898 16.0417 9.31909C16.0417 9.05531 15.8918 8.83716 15.7164 8.69523C15.5399 8.55245 15.3022 8.45614 15.0564 8.45614C14.813 8.45614 14.638 8.54016 14.523 8.59541L14.5139 8.59975C14.4488 8.63095 14.4078 8.64912 14.3744 8.65883C14.4027 8.25467 14.4351 7.70589 14.4351 7.29611C14.4351 6.73981 14.2329 5.8619 13.641 5.11594ZM7.86452 5.48296C7.36385 6.10968 7.19232 6.85385 7.19232 7.29611C7.19232 7.70617 7.22705 8.27582 7.25636 8.6843C7.2661 8.81996 7.23828 8.97809 7.11981 9.10363C6.99989 9.23069 6.83674 9.27193 6.691 9.27193C6.48056 9.27193 6.3205 9.19494 6.21811 9.14569L6.20622 9.13998C6.09199 9.08521 6.03193 9.05973 5.94363 9.05973C5.8633 9.05973 5.76523 9.09425 5.68746 9.15717C5.60864 9.22094 5.58578 9.28337 5.58578 9.31909C5.58578 9.39181 5.61261 9.44378 5.71122 9.50756C5.82767 9.58288 5.9936 9.63951 6.21112 9.71086L6.23006 9.71706C6.4107 9.77624 6.63444 9.84955 6.81101 9.95961C7.0092 10.0831 7.19232 10.2817 7.19232 10.5876C7.19232 10.6678 7.17015 10.7449 7.14933 10.8034C7.12675 10.8668 7.09623 10.9338 7.06203 11.0006C6.99349 11.1345 6.90079 11.2857 6.79891 11.4361C6.59677 11.7346 6.33981 12.0574 6.12625 12.2628C5.91034 12.4705 5.58565 12.704 5.25724 12.8861C5.09185 12.9778 4.91918 13.0601 4.75267 13.1202C4.60363 13.174 4.443 13.2161 4.2889 13.2227C4.28506 13.2243 4.28082 13.2262 4.27637 13.2285C4.26927 13.232 4.26262 13.2359 4.25683 13.2398L4.25386 13.2418C4.25444 13.246 4.25511 13.2491 4.25566 13.2512C4.25689 13.2561 4.25836 13.2595 4.26033 13.2631C4.26637 13.274 4.2759 13.2862 4.31444 13.3275L4.32455 13.3383C4.39399 13.413 4.5651 13.51 4.83634 13.5967C5.09467 13.6792 5.40015 13.7389 5.68875 13.7663C5.83315 13.7799 5.91638 13.8702 5.95161 13.9188C5.98787 13.9688 6.00861 14.0217 6.02072 14.0567C6.04417 14.1246 6.06187 14.2082 6.07584 14.2742L6.07797 14.2842C6.09703 14.3741 6.11371 14.4509 6.13547 14.5151C6.14316 14.5378 6.15025 14.5551 6.15636 14.5678C6.17013 14.5694 6.19124 14.5709 6.22183 14.5708C6.35454 14.5702 6.4874 14.5505 6.61889 14.5346C6.82925 14.5093 7.08957 14.4779 7.3652 14.4779C8.00444 14.4779 8.42625 14.7661 8.83372 15.0445L8.8566 15.0602C9.00738 15.1631 9.15849 15.2662 9.32843 15.3666C9.80731 15.6496 10.1717 15.6476 10.4379 15.6461C10.4566 15.646 10.4749 15.6459 10.4926 15.6459C10.5103 15.6459 10.5284 15.646 10.547 15.6461C10.8162 15.6475 11.1928 15.6496 11.6716 15.3666C11.8415 15.2662 11.9926 15.1631 12.1434 15.0602L12.1663 15.0445C12.5738 14.7661 12.9956 14.4779 13.6348 14.4779C13.9104 14.4779 14.1708 14.5093 14.3811 14.5346L14.3875 14.5354C14.5576 14.5559 14.6821 14.5704 14.7782 14.5708C14.8088 14.5709 14.8299 14.5694 14.8436 14.5678C14.8497 14.5551 14.8568 14.5378 14.8645 14.5151C14.8863 14.4509 14.903 14.3741 14.922 14.2842L14.9242 14.2742C14.9381 14.2082 14.9558 14.1246 14.9793 14.0567C14.9914 14.0217 15.0121 13.9688 15.0484 13.9188C15.0836 13.8702 15.1668 13.7799 15.3112 13.7663C15.5999 13.7389 15.9053 13.6792 16.1637 13.5967C16.4349 13.51 16.606 13.413 16.6754 13.3383L16.6856 13.3275C16.7241 13.2862 16.7336 13.274 16.7397 13.2631C16.7416 13.2595 16.7431 13.2561 16.7443 13.2512C16.7449 13.2491 16.7456 13.246 16.7461 13.2418L16.7432 13.2398C16.7374 13.2359 16.7307 13.232 16.7236 13.2285C16.7192 13.2262 16.7149 13.2243 16.7111 13.2227C16.557 13.2161 16.3964 13.174 16.2473 13.1202C16.0808 13.0601 15.9081 12.9778 15.7428 12.8861C15.4144 12.704 15.0897 12.4705 14.8737 12.2628C14.6602 12.0574 14.4032 11.7346 14.2011 11.4361C14.0992 11.2857 14.0065 11.1345 13.938 11.0006C13.9038 10.9338 13.8733 10.8668 13.8507 10.8034C13.8299 10.7449 13.8077 10.6678 13.8077 10.5876C13.8077 10.2817 13.9908 10.0831 14.189 9.95961C14.3656 9.84955 14.5893 9.77624 14.7699 9.71706L14.7889 9.71086C15.0064 9.63951 15.1723 9.58288 15.2888 9.50756C15.3874 9.44378 15.4142 9.39181 15.4142 9.31909C15.4142 9.28337 15.3914 9.22094 15.3125 9.15717C15.2348 9.09425 15.1367 9.05973 15.0564 9.05973C14.9681 9.05973 14.908 9.08521 14.7938 9.13998L14.7819 9.14569C14.6795 9.19494 14.5194 9.27193 14.309 9.27193C14.1633 9.27193 14.0001 9.23069 13.8802 9.10363C13.7617 8.97809 13.7339 8.81996 13.7436 8.6843C13.773 8.27582 13.8077 7.70617 13.8077 7.29611C13.8077 6.8527 13.6392 6.10845 13.1422 5.48218C12.6568 4.8704 11.8452 4.35359 10.5074 4.35359C9.16935 4.35359 8.35376 4.87055 7.86452 5.48296Z" fill="black"/>
<path id="body" fill-rule="evenodd" clip-rule="evenodd" d="M7.86457 5.48296C7.36389 6.10968 7.19236 6.85385 7.19236 7.2961C7.19236 7.70617 7.22709 8.27582 7.25641 8.6843C7.26615 8.81996 7.23833 8.97809 7.11985 9.10363C6.99993 9.23069 6.83679 9.27193 6.69105 9.27193C6.48061 9.27193 6.32055 9.19494 6.21816 9.14569L6.20627 9.13998C6.09203 9.08521 6.03197 9.05973 5.94367 9.05973C5.86335 9.05973 5.76528 9.09425 5.68751 9.15717C5.60868 9.22094 5.58583 9.28337 5.58583 9.31909C5.58583 9.39181 5.61266 9.44378 5.71126 9.50756C5.82771 9.58288 5.99365 9.63951 6.21117 9.71086L6.2301 9.71706C6.41074 9.77624 6.63449 9.84955 6.81105 9.95961C7.00925 10.0831 7.19236 10.2817 7.19236 10.5876C7.19236 10.6678 7.17019 10.7449 7.14938 10.8034C7.12679 10.8668 7.09627 10.9338 7.06207 11.0006C6.99353 11.1345 6.90084 11.2857 6.79896 11.4361C6.59681 11.7346 6.33986 12.0574 6.1263 12.2628C5.91039 12.4705 5.58569 12.704 5.25729 12.8861C5.0919 12.9778 4.91922 13.0601 4.75272 13.1202C4.60368 13.174 4.44304 13.2161 4.28895 13.2227C4.28511 13.2243 4.28086 13.2262 4.27642 13.2285C4.26931 13.232 4.26267 13.2359 4.25687 13.2398L4.25391 13.2418C4.25449 13.246 4.25515 13.2491 4.25571 13.2512C4.25694 13.2561 4.2584 13.2595 4.26037 13.2631C4.26641 13.274 4.27594 13.2862 4.31449 13.3275L4.3246 13.3383C4.39403 13.413 4.56515 13.51 4.83639 13.5967C5.09472 13.6792 5.40019 13.7389 5.6888 13.7663C5.8332 13.7799 5.91643 13.8702 5.95165 13.9188C5.98791 13.9688 6.00865 14.0217 6.02077 14.0567C6.04421 14.1246 6.06192 14.2082 6.07589 14.2742L6.07801 14.2842C6.09708 14.3741 6.11376 14.4509 6.13551 14.5151C6.1432 14.5378 6.1503 14.5551 6.1564 14.5678C6.17017 14.5694 6.19129 14.5709 6.22188 14.5708C6.35458 14.5702 6.48745 14.5505 6.61893 14.5346C6.82929 14.5093 7.08962 14.4779 7.36524 14.4779C8.00448 14.4779 8.42629 14.7661 8.83377 15.0445L8.85664 15.0602C9.00743 15.1631 9.15854 15.2662 9.32847 15.3666C9.80736 15.6496 10.1717 15.6476 10.438 15.6461C10.4567 15.646 10.4749 15.6459 10.4927 15.6459C10.5103 15.6459 10.5284 15.646 10.5471 15.6461C10.8162 15.6475 11.1928 15.6496 11.6716 15.3666C11.8416 15.2662 11.9927 15.1631 12.1434 15.0602L12.1663 15.0445C12.5738 14.7661 12.9956 14.4779 13.6349 14.4779C13.9105 14.4779 14.1708 14.5093 14.3812 14.5346L14.3875 14.5354C14.5576 14.5559 14.6821 14.5704 14.7782 14.5708C14.8088 14.5709 14.8299 14.5694 14.8437 14.5678C14.8498 14.5551 14.8569 14.5378 14.8646 14.5151C14.8863 14.4509 14.903 14.3741 14.9221 14.2842L14.9242 14.2742C14.9382 14.2082 14.9559 14.1246 14.9793 14.0567C14.9914 14.0217 15.0122 13.9688 15.0484 13.9188C15.0837 13.8702 15.1669 13.7799 15.3113 13.7663C15.5999 13.7389 15.9054 13.6792 16.1637 13.5967C16.4349 13.51 16.6061 13.413 16.6755 13.3383L16.6856 13.3275C16.7241 13.2862 16.7337 13.274 16.7397 13.2631C16.7417 13.2595 16.7432 13.2561 16.7444 13.2512C16.7449 13.2491 16.7456 13.246 16.7462 13.2418L16.7432 13.2398C16.7374 13.2359 16.7308 13.232 16.7237 13.2285C16.7192 13.2262 16.715 13.2243 16.7111 13.2227C16.557 13.2161 16.3964 13.174 16.2474 13.1202C16.0809 13.0601 15.9082 12.9778 15.7428 12.8861C15.4144 12.704 15.0897 12.4705 14.8738 12.2628C14.6602 12.0574 14.4033 11.7346 14.2011 11.4361C14.0993 11.2857 14.0066 11.1345 13.938 11.0006C13.9038 10.9338 13.8733 10.8668 13.8507 10.8034C13.8299 10.7449 13.8077 10.6678 13.8077 10.5876C13.8077 10.2817 13.9908 10.0831 14.189 9.95961C14.3656 9.84955 14.5893 9.77624 14.77 9.71706L14.7889 9.71086C15.0064 9.63951 15.1724 9.58288 15.2888 9.50756C15.3874 9.44378 15.4143 9.39181 15.4143 9.31909C15.4143 9.28337 15.3914 9.22094 15.3126 9.15717C15.2348 9.09425 15.1367 9.05973 15.0564 9.05973C14.9681 9.05973 14.9081 9.08521 14.7938 9.13998L14.7819 9.14569C14.6795 9.19494 14.5195 9.27193 14.309 9.27193C14.1633 9.27193 14.0002 9.23069 13.8802 9.10363C13.7618 8.97809 13.7339 8.81996 13.7437 8.6843C13.773 8.27582 13.8077 7.70617 13.8077 7.2961C13.8077 6.8527 13.6392 6.10845 13.1423 5.48218C12.6568 4.8704 11.8453 4.35359 10.5074 4.35359C9.16939 4.35359 8.3538 4.87055 7.86457 5.48296Z" fill="white"/>
</g>
</svg>
