<svg width="40" height="40" viewBox="0 0 40 40" fill="none" xmlns="http://www.w3.org/2000/svg">
<g id="simple-icons:starbucks" clip-path="url(#clip0_101_32644)">
<path id="Vector" d="M22.0117 8.79999C21.8367 8.76833 20.9917 8.62666 20 8.62666C19.0084 8.62666 18.1634 8.76833 17.9884 8.79999C17.8884 8.81666 17.8484 8.71999 17.925 8.66166C17.995 8.61166 20 7.08499 20 7.08499L22.0734 8.66166C22.1517 8.71999 22.1133 8.81833 22.0117 8.79999ZM18.5484 18.7083C18.5484 18.7083 18.4417 18.7467 18.415 18.84C18.835 19.1617 19.1234 19.8967 20 19.8967C20.8767 19.8967 21.1667 19.1633 21.585 18.8383C21.5584 18.745 21.4517 18.7083 21.4517 18.7083C21.4517 18.7083 20.9017 18.8367 20 18.8367C19.0967 18.8367 18.5484 18.7083 18.5484 18.7083ZM20 17.4717C19.7567 17.4717 19.7034 17.38 19.5367 17.38C19.38 17.38 19.0717 17.5067 19.005 17.6233C19.0087 17.6828 19.0336 17.7389 19.075 17.7817C19.4284 17.8333 19.59 18.0317 20 18.0317C20.41 18.0317 20.5717 17.8333 20.9267 17.7817C20.9664 17.7379 20.9904 17.6822 20.995 17.6233C20.9284 17.5067 20.6217 17.3817 20.4634 17.38C20.2967 17.38 20.2434 17.4717 20 17.4717ZM39.9783 21.255C39.9531 21.7302 39.9108 22.2044 39.8517 22.6767C37.585 23.0517 36.7767 21.0333 34.4567 21.135C34.5945 21.6272 34.7072 22.1289 34.795 22.64C36.7083 22.64 37.4783 24.4283 39.6083 24.165C39.4972 24.7117 39.3628 25.2505 39.205 25.7817C37.5217 25.9483 36.93 24.275 34.9817 24.3217C34.9983 24.5983 35.0067 24.8783 35.0067 25.1617L34.9983 25.6283L38.7817 27.0717C38.5838 27.6075 38.363 28.1347 38.12 28.6517C36.9833 28.59 36.5917 27.1317 34.8617 27.2467C34.81 27.6184 34.7444 27.9881 34.665 28.355C36.1667 28.25 36.49 29.6333 37.565 29.745C37.2915 30.2446 36.9968 30.7322 36.6817 31.2067C36.045 30.865 35.4917 29.835 34.2817 29.7717C34.4062 29.3873 34.5152 28.9981 34.6083 28.605C33.535 28.605 32.3083 28.1883 31.2817 27.2517C31.615 25.3517 28.6683 23.42 28.6683 22.03C28.6683 20.52 29.4317 19.685 29.4317 17.65C29.4317 16.1383 28.6983 14.5 27.5917 13.38C27.3862 13.1699 27.1562 12.9852 26.9067 12.83C27.9233 14.0867 28.7033 15.5783 28.7033 17.305C28.7033 19.2217 27.8117 20.2333 27.8117 22.0033C27.8117 23.7717 30.4 25.3033 30.4 27.1267C30.4 27.8433 30.17 28.5433 29.4133 29.9217C30.575 31.0817 32.0883 31.715 33.0633 31.715C33.38 31.715 33.5517 31.6183 33.665 31.37C33.7629 31.155 33.8557 30.9377 33.9433 30.7183C34.9933 30.7583 35.4767 31.7133 36.0583 32.095C35.7383 32.525 35.4028 32.9394 35.0517 33.3383C34.6617 32.9067 34.1367 32.18 33.3683 31.9783C33.2318 32.2454 33.0873 32.5083 32.935 32.7667C33.595 32.9467 34.0467 33.6133 34.3967 34.0517C34.0194 34.4431 33.6263 34.8189 33.2183 35.1783C32.9633 34.78 32.565 34.2767 32.1183 34.005C31.9546 34.2269 31.7839 34.4437 31.6067 34.655C31.985 34.9133 32.32 35.375 32.5383 35.7517C32.0672 36.1306 31.5783 36.4889 31.0717 36.8267C30.8217 34.7933 28.0483 33.4017 28.7967 31.0433C28.5517 31.46 28.2583 31.9783 28.2583 32.605C28.2583 34.3117 30.075 35.665 30.2217 37.3617C29.8439 37.5861 29.4589 37.7989 29.0667 38C29 36.135 27.0767 34.095 27.0767 32.5667C27.0767 30.8583 29.3133 29.1417 29.3133 27.1267C29.3133 25.11 26.7317 23.7117 26.7317 21.9417C26.7317 20.1717 27.83 19.1533 27.83 16.8833C27.83 15.2217 27.04 13.54 25.82 12.4667C25.6131 12.2798 25.3835 12.1197 25.1367 11.99C26.2867 13.37 26.9534 14.6233 26.9534 16.5217C26.9534 18.655 25.695 19.8383 25.695 21.9283C25.695 24.0183 28.2283 25.1783 28.2283 27.1283C28.2283 29.075 25.8717 30.715 25.8717 32.7167C25.8717 34.5367 27.9483 36.3533 27.98 38.5117C27.5242 38.71 27.0611 38.8912 26.5917 39.055C26.8567 36.8733 24.5167 34.6233 24.5167 32.8433C24.5167 30.8983 26.9617 29.225 26.9617 27.1267C26.9617 25.0283 24.4767 24.0517 24.4767 21.8967C24.4767 19.7417 26.0017 18.5517 26.0017 16.1717C25.9967 15.2909 25.7912 14.4228 25.4008 13.6333C25.0104 12.8438 24.4453 12.1536 23.7484 11.615L23.6634 11.5517C23.5367 11.4583 23.4334 11.57 23.5234 11.6817C24.47 12.865 24.9767 14.06 24.9767 15.8317C24.9767 18.0067 23.2234 19.775 23.2234 21.885C23.2234 24.3733 25.5767 25.085 25.5767 27.1267C25.5767 29.1683 23.0534 30.8017 23.0534 32.9683C23.0534 34.9783 25.4417 37.21 25.0317 39.53C24.5503 39.6547 24.0644 39.7615 23.575 39.85C24.0234 36.9617 21.68 34.8867 21.68 32.9967C21.68 30.95 24.2934 29.1267 24.2934 27.1267C24.2934 25.2417 22.4184 24.625 22.1717 22.695C22.1384 22.4317 21.9267 22.2367 21.635 22.285C21.2534 22.355 20.765 22.605 19.9984 22.605C19.2317 22.605 18.7434 22.355 18.3617 22.285C18.0717 22.2367 17.86 22.4317 17.8267 22.695C17.58 24.625 15.7034 25.24 15.7034 27.1283C15.7034 29.1267 18.3167 30.95 18.3167 32.995C18.3167 34.8867 15.975 36.9617 16.4217 39.85C15.9323 39.7615 15.4464 39.6547 14.965 39.53C14.555 37.21 16.9434 34.98 16.9434 32.9683C16.9434 30.8017 14.42 29.1683 14.42 27.1267C14.42 25.085 16.7734 24.3733 16.7734 21.885C16.7734 19.775 15.0217 18.0083 15.0217 15.83C15.0217 14.06 15.5267 12.8633 16.475 11.68C16.5634 11.57 16.46 11.4583 16.3334 11.5517L16.25 11.615C15.5538 12.1534 14.9893 12.8432 14.5992 13.6321C14.2091 14.4209 14.0036 15.2883 13.9984 16.1683C13.9984 18.5483 15.5234 19.74 15.5234 21.895C15.5234 24.0483 13.0367 25.025 13.0367 27.125C13.0367 29.2217 15.4817 30.895 15.4817 32.8417C15.4817 34.6217 13.1434 36.8717 13.4084 39.0533C12.939 38.8895 12.4759 38.7083 12.02 38.51C12.0517 36.35 14.1284 34.5333 14.1284 32.7133C14.1284 30.7133 11.7717 29.0717 11.7717 27.125C11.7717 25.1783 14.3034 24.015 14.3034 21.925C14.3034 19.8367 13.0467 18.6517 13.0467 16.5183C13.0467 14.6183 13.7134 13.3683 14.8634 11.9883C14.6166 12.1175 14.3871 12.2771 14.18 12.4633C13.5583 13.0209 13.0587 13.7012 12.7128 14.4613C12.3669 15.2214 12.1821 16.0449 12.17 16.88C12.17 19.15 13.2684 20.1683 13.2684 21.9383C13.2684 23.7083 10.6867 25.105 10.6867 27.1233C10.6867 29.14 12.9234 30.8567 12.9234 32.5633C12.9234 34.0933 10.9984 36.1333 10.9334 37.9967C10.5414 37.7966 10.1562 37.5838 9.77835 37.3583C9.92335 35.6633 11.7417 34.3083 11.7417 32.6017C11.7417 31.9767 11.4484 31.4567 11.2034 31.0417C11.95 33.3983 9.17668 34.7917 8.92668 36.8233C8.42175 36.4874 7.93235 36.1287 7.46002 35.7483C7.67835 35.3733 8.01335 34.91 8.39335 34.6533C8.21552 34.4415 8.04433 34.2242 7.88002 34.0017C7.43335 34.2733 7.03502 34.7783 6.78002 35.175C6.37212 34.8162 5.97902 34.4408 5.60169 34.05C5.95168 33.61 6.40502 32.9433 7.06502 32.7633C6.91216 32.505 6.7671 32.2421 6.63002 31.975C5.86335 32.1783 5.33668 32.905 4.94668 33.3367C4.59525 32.9358 4.25998 32.521 3.94168 32.0933C4.52502 31.71 5.00502 30.755 6.05668 30.715C6.14446 30.9339 6.23724 31.1506 6.33502 31.365C6.44835 31.615 6.61835 31.7117 6.93502 31.7117C7.91168 31.7117 9.42335 31.0783 10.585 29.9183C9.83002 28.5417 9.60168 27.8417 9.60168 27.1233C9.60168 25.3 12.1884 23.77 12.1884 22C12.1884 20.23 11.2967 19.22 11.2967 17.3033C11.2967 15.575 12.0767 14.085 13.0934 12.8267C12.8432 12.9818 12.6127 13.1664 12.4067 13.3767C11.3017 14.5 10.5667 16.1383 10.5667 17.6483C10.5667 19.6833 11.3317 20.52 11.3317 22.03C11.3317 23.42 8.38502 25.3517 8.71835 27.25C7.69002 28.1867 6.46335 28.605 5.39002 28.605C5.4826 28.9981 5.59102 29.3873 5.71502 29.7717C4.50668 29.835 3.95502 30.865 3.31502 31.205C2.99994 30.7311 2.70522 30.244 2.43169 29.745C3.50835 29.6317 3.83168 28.25 5.33502 28.355C5.25562 27.9881 5.19002 27.6184 5.13835 27.2467C3.40835 27.13 3.01502 28.59 1.87835 28.6517C1.6359 28.1347 1.4157 27.6075 1.21835 27.0717L5.00002 25.6267L4.99168 25.16C4.99168 24.8767 4.99946 24.5961 5.01502 24.3183C3.06835 24.2733 2.47502 25.945 0.791685 25.78C0.635403 25.2469 0.501397 24.7076 0.390019 24.1633C2.51669 24.425 3.29002 22.6367 5.20335 22.6383C5.28964 22.1307 5.40201 21.6278 5.54002 21.1317C3.22002 21.0317 2.41002 23.0483 0.146685 22.6733C0.0876012 22.2017 0.0453521 21.728 0.0200187 21.2533C2.65335 21.5467 3.63835 19.3833 6.03668 19.6483C6.25928 19.0771 6.52102 18.5219 6.82002 17.9867C3.81502 17.4583 2.79502 19.9717 -0.00164795 19.5867C0.301685 8.79999 9.14002 0.149994 20 0.149994C30.86 0.149994 39.6983 8.79999 40 19.5883C37.2017 19.975 36.1833 17.4617 33.1783 17.9883C33.475 18.5228 33.7361 19.0767 33.9617 19.65C36.3583 19.385 37.345 21.55 39.9783 21.255ZM11.4 12.8633C9.92668 12.2617 8.14335 12.4 6.62002 13.38C6.38335 11.9617 5.61502 10.7017 4.52002 9.94333C4.36835 9.83833 4.21169 9.93666 4.22502 10.1133C4.45669 13.1067 2.70502 15.7067 0.553352 17.9933C2.77169 18.66 4.66002 15.8033 7.53668 16.8C8.57006 15.2603 9.87998 13.9255 11.4 12.8633ZM20 11.0517C18.1434 11.0517 16.5867 12.1017 16.18 13.46C16.1467 13.5633 16.19 13.6317 16.31 13.5767C16.6434 13.4267 17.025 13.355 17.4384 13.355C18.195 13.355 18.8634 13.6333 19.2584 14.1167C19.4317 14.6933 19.4467 15.5283 19.25 16.0033C18.9384 15.9333 18.825 15.6933 18.52 15.6933C18.2167 15.6933 17.98 15.9067 17.4634 15.9067C16.9467 15.9067 16.8867 15.6633 16.5467 15.6633C16.1467 15.6633 16.0734 16.075 16.0734 16.5383C16.0734 18.6083 17.9767 21.455 20 21.455C22.0233 21.455 23.9234 18.6083 23.9234 16.5383C23.9234 16.0733 23.8284 15.6767 23.4117 15.6217C23.1656 15.8234 22.8527 15.9251 22.535 15.9067C22.0184 15.9067 21.8767 15.6933 21.5717 15.6933C21.205 15.6933 21.2417 16.4683 20.805 16.51C20.5133 15.8117 20.5 14.915 20.7417 14.1167C21.1367 13.6333 21.8034 13.355 22.5617 13.355C22.975 13.355 23.3567 13.4283 23.6884 13.5767C23.8084 13.6317 23.85 13.5633 23.82 13.46C23.4134 12.1033 21.8567 11.0517 20 11.0517ZM22.9567 14.0217C22.5117 14.0217 21.99 14.1583 21.6617 14.5233C21.6246 14.6368 21.6293 14.7597 21.675 14.87C22.4834 14.5933 23.195 14.5817 23.54 14.9667C23.7234 14.8 23.7817 14.65 23.7817 14.4767C23.7817 14.2083 23.5084 14.0217 22.9567 14.0217ZM16.46 14.9667C16.85 14.5767 17.6717 14.5933 18.5234 14.9083C18.5617 14.485 17.8017 14.02 17.0434 14.02C16.4917 14.02 16.2184 14.2067 16.2184 14.4767C16.2184 14.65 16.2767 14.8017 16.46 14.9667ZM29.26 7.96166C27.7933 8.06666 26.5217 8.56999 25.49 9.40833C25.9115 8.21566 26.4821 7.0811 27.1883 6.03166C25.3217 6.22999 23.76 6.91333 22.6217 8.07999L21.7283 5.74166L23.7084 3.99499L21.0584 3.80666L20 1.34166L18.9417 3.80833L16.2917 3.99499L18.27 5.74333L17.38 8.07999C16.24 6.91333 14.68 6.22999 12.8134 6.03166C13.5184 7.08128 14.0879 8.21583 14.5084 9.40833C13.4784 8.56999 12.205 8.06666 10.7384 7.96166C11.6184 9.09333 12.3984 10.2983 12.975 11.595C13.0417 11.7417 13.1817 11.79 13.3317 11.7133C15.4031 10.684 17.6853 10.15 19.9984 10.1533C22.395 10.1533 24.6567 10.7167 26.6667 11.7133C26.8183 11.79 26.9583 11.7417 27.0233 11.5967C27.6017 10.2983 28.3817 9.09333 29.2617 7.96333L29.26 7.96166ZM32.4633 16.8017C35.34 15.805 37.23 18.66 39.4467 17.995C37.295 15.7083 35.545 13.1083 35.7767 10.1133C35.79 9.93833 35.6317 9.83833 35.4817 9.94333C34.3867 10.7033 33.6167 11.9633 33.3817 13.38C31.8583 12.4017 30.075 12.2633 28.6017 12.865C30.1211 13.9273 31.4305 15.2621 32.4633 16.8017Z" fill="white"/>
</g>
<defs>
<clipPath id="clip0_101_32644">
<rect width="40" height="40" fill="white"/>
</clipPath>
</defs>
</svg>
