<svg width="40" height="40" viewBox="0 0 40 40" fill="none" xmlns="http://www.w3.org/2000/svg">
<g id="simple-icons:steam" clip-path="url(#clip0_101_32638)">
<path id="Vector" d="M19.965 0C9.46329 0 0.851621 8.1 0.0366211 18.395L10.7566 22.825C11.6962 22.185 12.8065 21.8424 13.9433 21.8417C14.0477 21.8428 14.1522 21.8461 14.2566 21.8517L19.025 14.9483V14.85C19.0276 12.8511 19.8228 10.9348 21.2363 9.52134C22.6497 8.10789 24.566 7.31265 26.565 7.31C30.7216 7.31 34.105 10.695 34.105 14.855C34.105 19.015 30.7216 22.3967 26.565 22.3967H26.39L19.5966 27.2483L19.6033 27.5133C19.6046 28.2561 19.4594 28.9919 19.1761 29.6786C18.8927 30.3652 18.4768 30.9892 17.952 31.515C17.4272 32.0407 16.8039 32.4577 16.1178 32.7423C15.4316 33.0269 14.6961 33.1733 13.9533 33.1733C12.6464 33.1695 11.3808 32.7155 10.3696 31.8876C9.35839 31.0598 8.66337 29.9087 8.40162 28.6283L0.726621 25.45C3.10329 33.845 10.81 40 19.965 40C31.01 40 39.9633 31.045 39.9633 20C39.9633 8.955 31.0083 0 19.965 0ZM12.5666 30.35L10.1116 29.3333C10.5483 30.2383 11.3016 30.9983 12.3016 31.4167C13.0772 31.7381 13.9307 31.8226 14.7543 31.6597C15.5779 31.4967 16.3348 31.0936 16.9296 30.5011C17.5245 29.9086 17.9306 29.1532 18.0967 28.3302C18.2629 27.5073 18.1816 26.6535 17.8633 25.8767C17.4429 24.8557 16.6412 24.0387 15.6284 23.599C14.6155 23.1593 13.4712 23.1316 12.4383 23.5217L14.9766 24.5717C15.7429 24.891 16.3509 25.5017 16.6669 26.2694C16.9829 27.037 16.981 27.8987 16.6616 28.665C16.3423 29.4313 15.7316 30.0393 14.9639 30.3553C14.1963 30.6713 13.3329 30.6694 12.5666 30.35ZM31.5916 14.845C31.5894 13.513 31.0593 12.2361 30.1174 11.2942C29.1755 10.3523 27.8987 9.8222 26.5666 9.82C25.5728 9.82 24.6012 10.1147 23.7749 10.6669C22.9485 11.219 22.3045 12.0038 21.9241 12.922C21.5438 13.8402 21.4443 14.8506 21.6382 15.8253C21.8321 16.8001 22.3107 17.6955 23.0134 18.3982C23.7162 19.101 24.6115 19.5796 25.5863 19.7734C26.561 19.9673 27.5714 19.8678 28.4896 19.4875C29.4078 19.1072 30.1926 18.4631 30.7448 17.6367C31.2969 16.8104 31.5916 15.8389 31.5916 14.845ZM22.8033 14.8367C22.8033 13.8353 23.2011 12.8749 23.9092 12.1667C24.6173 11.4586 25.5777 11.0608 26.5791 11.0608C27.5805 11.0608 28.5409 11.4586 29.249 12.1667C29.9571 12.8749 30.355 13.8353 30.355 14.8367C30.3541 15.8379 29.9558 16.7978 29.2477 17.5056C28.5396 18.2134 27.5795 18.6112 26.5783 18.6117C26.0825 18.6119 25.5915 18.5144 25.1334 18.3248C24.6753 18.1351 24.2591 17.8571 23.9085 17.5065C23.5579 17.1559 23.2798 16.7397 23.0902 16.2816C22.9006 15.8235 22.8031 15.3325 22.8033 14.8367Z" fill="white"/>
</g>
<defs>
<clipPath id="clip0_101_32638">
<rect width="40" height="40" fill="white"/>
</clipPath>
</defs>
</svg>
