<svg width="20" height="20" viewBox="0 0 20 20" fill="none" xmlns="http://www.w3.org/2000/svg">
<g id="tiktok">
<path id="vector" d="M5.2816 12.3704C5.37927 11.5617 5.71094 11.1089 6.33596 10.6448C7.23024 10.0161 8.34734 10.3717 8.34734 10.3717V8.26225C8.61892 8.2553 8.8906 8.2714 9.15922 8.31035V11.025C9.15922 11.025 8.04246 10.6695 7.14818 11.2984C6.5235 11.7622 6.19115 12.2153 6.09382 13.024C6.09077 13.4631 6.17318 14.0371 6.55266 14.5335C6.45884 14.4854 6.3632 14.4305 6.26576 14.369C5.4298 13.8077 5.27753 12.9655 5.2816 12.3704ZM13.7717 4.36183C13.1565 3.6877 12.9239 3.00708 12.8398 2.52895H13.6137C13.6137 2.52895 13.4594 3.78261 14.5839 5.01547L14.5995 5.03205C14.2965 4.8414 14.0185 4.61636 13.7717 4.36183ZM17.4998 6.27303V8.93312C17.4998 8.93312 16.5122 8.89444 15.7814 8.70852C14.761 8.44849 14.1051 8.04967 14.1051 8.04967C14.1051 8.04967 13.652 7.76527 13.6154 7.74544V13.2385C13.6154 13.5444 13.5316 14.3082 13.2763 14.9453C12.9429 15.7787 12.4284 16.3257 12.3338 16.4375C12.3338 16.4375 11.7081 17.177 10.6043 17.6749C9.60924 18.1241 8.73564 18.1128 8.47451 18.1241C8.47451 18.1241 6.96437 18.1839 5.60547 17.3008C5.31162 17.1062 5.03732 16.8857 4.78613 16.6423L4.79292 16.6472C6.15215 17.5303 7.66196 17.4705 7.66196 17.4705C7.92343 17.4591 8.79703 17.4705 9.7917 17.0213C10.8945 16.5233 11.5213 15.7839 11.5213 15.7839C11.6149 15.6721 12.1317 15.125 12.4637 14.2913C12.7184 13.6546 12.8028 12.8904 12.8028 12.5846V7.09212C12.8395 7.11227 13.2922 7.39668 13.2922 7.39668C13.2922 7.39668 13.9484 7.79582 14.9689 8.05552C15.7 8.24144 16.6872 8.28012 16.6872 8.28012V6.19567C17.025 6.27141 17.3129 6.29188 17.4998 6.27303Z" fill="#EE1D52"/>
<path id="vector_2" d="M16.6875 6.19567V8.27947C16.6875 8.27947 15.7003 8.24079 14.9692 8.05487C13.9487 7.79485 13.2925 7.39603 13.2925 7.39603C13.2925 7.39603 12.8398 7.11162 12.8032 7.09147V12.5852C12.8032 12.8911 12.7194 13.6552 12.464 14.292C12.1307 15.1257 11.6162 15.6727 11.5216 15.7845C11.5216 15.7845 10.8955 16.524 9.79201 17.0219C8.79734 17.4711 7.92374 17.4598 7.66227 17.4711C7.66227 17.4711 6.15247 17.5309 4.79323 16.6478L4.78645 16.6429C4.64294 16.504 4.50786 16.3573 4.38187 16.2035C3.94812 15.6747 3.68224 15.0493 3.61543 14.8709C3.61532 14.8701 3.61532 14.8693 3.61543 14.8686C3.50793 14.5585 3.28207 13.8138 3.31293 13.0926C3.36753 11.8201 3.81518 11.039 3.93354 10.8433C4.247 10.3098 4.65469 9.83235 5.13847 9.43237C5.56537 9.08722 6.04926 8.81261 6.57027 8.61978C7.13351 8.39338 7.73664 8.27204 8.34732 8.26225V10.3717C8.34732 10.3717 7.23022 10.0174 6.33627 10.6448C5.71126 11.1089 5.37959 11.5617 5.28192 12.3704C5.27785 12.9655 5.43012 13.8077 6.2654 14.3693C6.36284 14.4311 6.45847 14.4859 6.5523 14.5338C6.69822 14.7235 6.87583 14.8888 7.07795 15.023C7.8939 15.5395 8.57759 15.5755 9.45187 15.2401C10.0348 15.0158 10.4737 14.5104 10.6771 13.9504C10.805 13.6006 10.8033 13.2486 10.8033 12.8846V2.52895H12.8381C12.9222 3.00708 13.1548 3.6877 13.77 4.36183C14.0168 4.61636 14.2947 4.8414 14.5978 5.03205C14.6874 5.12468 15.1452 5.58266 15.7329 5.86381C16.0368 6.00914 16.3571 6.12049 16.6875 6.19567Z" fill="black"/>
<path id="vector_3" d="M2.80566 14.2231V14.2247L2.85615 14.3616C2.85035 14.3456 2.83159 14.2972 2.80566 14.2231Z" fill="#69C9D0"/>
<path id="vector_4" d="M6.57051 8.61981C6.0495 8.81264 5.56561 9.08725 5.1387 9.4324C4.65477 9.83328 4.24718 10.3117 3.93411 10.8463C3.81576 11.0413 3.3681 11.823 3.3135 13.0955C3.28264 13.8168 3.5085 14.5615 3.61601 14.8715C3.61589 14.8723 3.61589 14.8731 3.61601 14.8738C3.68383 15.0506 3.94869 15.676 4.38244 16.2065C4.50844 16.3602 4.64352 16.5069 4.78702 16.6459C4.32723 16.3411 3.91716 15.9726 3.57023 15.5525C3.14021 15.0282 2.87501 14.4093 2.80583 14.2267C2.80574 14.2254 2.80574 14.2241 2.80583 14.2228V14.2205C2.69798 13.9107 2.47144 13.1658 2.50298 12.4435C2.55758 11.171 3.00523 10.39 3.12359 10.1943C3.43657 9.65962 3.84417 9.18119 4.32818 8.78038C4.755 8.43511 5.23891 8.16049 5.75999 7.96779C6.08501 7.83854 6.42361 7.74319 6.76992 7.68339C7.29183 7.59607 7.82487 7.5885 8.34925 7.66096V8.26227C7.738 8.27186 7.13427 8.39321 6.57051 8.61981Z" fill="#69C9D0"/>
<path id="vector_5" d="M12.8399 2.52897H10.8051V12.8849C10.8051 13.2489 10.8051 13.6 10.6789 13.9507C10.4734 14.5104 10.0363 15.0158 9.45365 15.2401C8.57904 15.5768 7.89535 15.5395 7.07974 15.023C6.87727 14.8894 6.69921 14.7246 6.55273 14.5354C7.24761 14.8907 7.86958 14.8845 8.64008 14.5881C9.22237 14.3638 9.66018 13.8584 9.86502 13.2984C9.99321 12.9486 9.99151 12.5966 9.99151 12.2329V1.875H12.8012C12.8012 1.875 12.7697 2.13243 12.8399 2.52897ZM16.6876 5.6194V6.19569C16.3578 6.12039 16.038 6.00904 15.7347 5.86383C15.147 5.58267 14.6891 5.1247 14.5996 5.03206C14.7035 5.09744 14.8113 5.15691 14.9225 5.21018C15.637 5.55212 16.3407 5.65418 16.6876 5.6194Z" fill="#69C9D0"/>
</g>
</svg>
