<svg width="40" height="40" viewBox="0 0 40 40" fill="none" xmlns="http://www.w3.org/2000/svg">
<g id="simple-icons:ubereats">
<path id="Vector" d="M0 4.775V13.1033C0 16.2417 2.22 18.32 5.14 18.32C5.80484 18.3295 6.46477 18.205 7.08043 17.9539C7.69608 17.7027 8.25484 17.3301 8.72333 16.8583V18.0967H10.7417V4.77333H8.705V12.9967C8.705 15.105 7.255 16.53 5.38 16.5333C3.48167 16.53 2.05167 15.1433 2.05167 12.9967V4.775H0ZM12.2717 4.775V18.0967H14.2083V16.8767C15.1454 17.8114 16.4148 18.3364 17.7383 18.3367C18.4153 18.354 19.0889 18.2357 19.7194 17.9886C20.3499 17.7415 20.9245 17.3707 21.4095 16.8981C21.8944 16.4254 22.2798 15.8604 22.543 15.2365C22.8061 14.6125 22.9417 13.9422 22.9417 13.265C22.9417 12.5878 22.8061 11.9175 22.543 11.2935C22.2798 10.6696 21.8944 10.1046 21.4095 9.63193C20.9245 9.15926 20.3499 8.78846 19.7194 8.54139C19.0889 8.29432 18.4153 8.17597 17.7383 8.19333C17.0856 8.19315 16.4394 8.32206 15.8367 8.57263C15.234 8.82319 14.6868 9.19047 14.2267 9.65333V4.775H12.2717ZM28.7467 8.20166C28.083 8.19837 27.4253 8.32635 26.8113 8.57824C26.1973 8.83013 25.6392 9.20095 25.169 9.66938C24.6989 10.1378 24.326 10.6946 24.0719 11.3076C23.8178 11.9207 23.6874 12.578 23.6883 13.2417C23.6883 16.1367 25.9767 18.3033 28.9433 18.3033C29.7673 18.3206 30.5835 18.1417 31.3248 17.7815C32.066 17.4213 32.711 16.8901 33.2067 16.2317L31.79 15.2017C31.4674 15.6533 31.0395 16.0196 30.5435 16.2687C30.0475 16.5179 29.4983 16.6425 28.9433 16.6317C28.1563 16.6418 27.3918 16.3688 26.7892 15.8625C26.1865 15.3562 25.7858 14.6503 25.66 13.8733H33.6883V13.2417C33.6883 10.3517 31.5983 8.20166 28.7483 8.20166H28.7467ZM39.0183 8.31166C38.5584 8.30864 38.1056 8.42461 37.7037 8.64831C37.3019 8.87201 36.9647 9.19583 36.725 9.58833V8.39H34.7867V18.0967H36.7433V12.5767C36.7433 11.0733 37.675 10.1033 38.955 10.1033H39.78V8.315L39.0183 8.31166ZM28.68 9.885C29.3987 9.87523 30.0981 10.1177 30.6565 10.5702C31.215 11.0227 31.5972 11.6566 31.7367 12.3617H25.7067C25.8434 11.6706 26.2133 11.0475 26.7546 10.5966C27.2959 10.1458 27.9756 9.89453 28.68 9.885ZM17.5817 9.895C18.024 9.89478 18.462 9.98169 18.8708 10.1508C19.2795 10.3198 19.651 10.5678 19.9639 10.8804C20.2769 11.193 20.5252 11.5642 20.6946 11.9728C20.8641 12.3814 20.9514 12.8193 20.9517 13.2617C20.9519 13.704 20.865 14.142 20.6959 14.5508C20.5268 14.9595 20.2789 15.331 19.9663 15.6439C19.6537 15.9569 19.2825 16.2051 18.8739 16.3746C18.4653 16.5441 18.0273 16.6314 17.585 16.6317C16.6977 16.6234 15.8496 16.2652 15.225 15.635C14.6003 15.0044 14.2499 14.1526 14.25 13.265C14.2494 12.3776 14.5992 11.5258 15.2233 10.895C15.847 10.2639 16.6945 9.90456 17.5817 9.895ZM0 21.645V34.93H9.53667V32.6517H2.57667V29.3683H9.35V27.1767H2.575V23.9183H9.535V21.6433L0 21.645ZM24.2667 22.3283V25.1367H22.35V27.3667H24.2733V32.605C24.2733 33.9267 25.2267 34.9733 26.94 34.9733H29.6783L29.6683 32.7433H27.7667C27.1867 32.7433 26.8133 32.4933 26.8133 31.97V27.3567H29.6667V25.1367H26.8233V22.3267L24.2667 22.3283ZM15.4383 24.8733C14.7531 24.8715 14.0743 25.0058 13.4415 25.2686C12.8086 25.5313 12.2343 25.9172 11.7518 26.4038C11.2694 26.8904 10.8885 27.4681 10.6312 28.1031C10.3739 28.7382 10.2454 29.4181 10.2531 30.1033C10.2608 30.7885 10.4047 31.4653 10.6762 32.0945C10.9478 32.7236 11.3416 33.2925 11.8349 33.7681C12.3282 34.2437 12.9111 34.6165 13.5497 34.8649C14.1884 35.1133 14.87 35.2323 15.555 35.215C16.7143 35.2258 17.8414 34.8335 18.7433 34.105V34.9917H21.2717V25.1367H18.7567V26.0133C17.8557 25.2715 16.7237 24.8682 15.5567 24.8733H15.4383ZM35.0567 24.885C32.415 24.885 30.5567 25.9583 30.5567 28.0283C30.5567 29.4617 31.5783 30.3967 33.7833 30.8533L36.1967 31.4C37.1467 31.5833 37.4 31.8317 37.4 32.2167C37.4 32.835 36.67 33.2217 35.5217 33.2217C34.0617 33.2217 33.225 32.905 32.9 31.8083H30.345C30.7117 33.86 32.2733 35.225 35.4267 35.225H35.43C38.35 35.225 40 33.86 40 31.97C40 30.6267 39.025 29.6233 36.985 29.1917L34.8283 28.7583C33.5767 28.5317 33.1817 28.3017 33.1817 27.8483C33.1817 27.2533 33.7833 26.89 34.8983 26.89C36.1017 26.89 36.985 27.21 37.24 28.3017H39.77C39.6267 26.2533 38.1183 24.885 35.0567 24.885ZM15.78 26.9683C17.4633 26.985 18.8117 28.3633 18.7917 30.0467C18.7921 30.4444 18.7135 30.8383 18.5604 31.2054C18.4072 31.5726 18.1825 31.9055 17.8995 32.185C17.6164 32.4645 17.2806 32.6849 16.9116 32.8334C16.5426 32.9819 16.1477 33.0555 15.75 33.05C14.9437 33.046 14.1721 32.7219 13.6048 32.149C13.0375 31.5761 12.721 30.8013 12.725 29.995C12.729 29.1887 13.0531 28.4171 13.626 27.8498C14.1989 27.2825 14.9737 26.9644 15.78 26.9683Z" fill="white"/>
</g>
</svg>
