<svg width="166" height="40" viewBox="0 0 166 40" fill="none" xmlns="http://www.w3.org/2000/svg">
<g id="Logo.svg" clip-path="url(#clip0_101_32830)">
<g id="Group">
<path id="Vector" fill-rule="evenodd" clip-rule="evenodd" d="M92.1435 25.4308C92.1435 25.7441 92.0916 26.1096 92.0396 26.3707C91.572 27.7284 90.3251 28.6161 88.8704 28.6161C87.5715 28.6161 86.5844 27.8851 86.5844 26.3185C86.5844 23.9164 89.1821 23.2898 92.1955 23.2898V25.4308H92.1435ZM96.8194 21.2532C96.8194 17.3368 95.1569 13.8381 89.4938 13.8381C86.5844 13.8381 84.2465 14.6736 82.9995 15.4046L83.9347 18.59C85.3895 17.7545 87 17.2845 88.6626 17.2323C91.572 17.2323 92.0396 18.8511 92.0396 19.8955V20.1566C85.7531 20.1566 81.8046 22.3498 81.8046 26.7885C81.8046 29.5039 83.8308 32.0626 87.3637 32.0626C89.4938 32.0626 91.3122 31.2271 92.4033 29.8172H92.5072C92.5072 29.8172 93.2346 32.8459 97.1831 31.6971C96.9753 30.4438 96.8714 29.0861 96.8714 27.5195V21.2532H96.8194ZM0.80777 8.45947L5.58757 28.0939C6.36688 31.2793 7.7177 32.4804 11.6662 31.6971L14.212 21.2532C14.8354 18.6422 15.303 16.8146 15.7187 14.1514H15.7706C16.0823 16.8146 16.498 18.6422 17.0175 21.2532L18.5762 28.5117C19.1477 31.0182 20.6024 32.5848 24.499 31.6971L30.5776 8.51169H25.6419L23.5638 18.5378C22.9923 21.4621 22.4727 23.7597 22.1091 26.4229C21.7454 23.7597 21.2778 21.5665 20.7063 18.7467L18.5762 8.51169H13.4327L11.0947 18.4856C10.4713 21.5143 9.84783 23.9686 9.43219 26.5274H9.38024C8.9646 24.1253 8.44506 21.0443 7.87356 18.12L6.0032 8.45947H0.80777ZM39.6177 25.4308C39.6177 25.7441 39.6177 26.1096 39.5138 26.3707C39.0462 27.7284 37.7993 28.6161 36.3445 28.6161C35.0457 28.6161 34.0586 27.8851 34.0586 26.3185C34.0586 23.9164 36.6563 23.2898 39.6696 23.2898V25.4308H39.6177ZM44.3455 21.2532C44.3455 17.3368 42.683 13.8381 37.0199 13.8381C34.1105 13.8381 31.7726 14.6736 30.5257 15.4046L31.4608 18.59C32.9156 17.7545 34.5261 17.2845 36.1887 17.2323C39.0981 17.2323 39.5657 18.8511 39.5657 19.8955V20.1566C33.2792 20.1566 29.3307 22.3498 29.3307 26.7885C29.3307 29.5039 31.3569 32.0626 34.8898 32.0626C37.0199 32.0626 38.8384 31.2271 39.9294 29.8172H40.0333C40.0333 29.8172 40.7607 32.8459 44.7092 31.6971C44.5014 30.4438 44.3975 29.0861 44.3975 27.5195V21.2532H44.3455ZM51.5672 26.7362V8.45947H46.8913V31.6449H51.5672V26.7362ZM111.211 8.51169V25.5874C111.211 27.9373 111.626 29.6083 112.614 30.6005C113.445 31.4882 114.796 32.0626 116.406 32.0626C117.809 32.0626 119.16 31.8015 119.783 31.5404L119.731 27.8328C119.264 27.9895 118.692 28.0417 117.965 28.0417C116.354 28.0417 115.835 27.0496 115.835 24.9086V18.4334H119.939V13.9947H115.835V8.45947L111.211 8.51169ZM99.1054 14.2558V31.6971H103.937V22.7676C103.937 22.2976 103.989 21.8798 104.041 21.4621C104.405 19.5822 105.808 18.3811 107.886 18.3811C108.457 18.3811 108.821 18.4334 109.288 18.4856V13.8903C108.925 13.8381 108.561 13.7858 108.249 13.7858C106.431 13.7858 104.405 14.9347 103.522 17.4934H103.418V14.2036L99.1054 14.2558ZM54.3207 14.2558V31.6971H58.9966V21.4621C58.9966 20.9921 59.0486 20.4699 59.2045 20.0522C59.5681 19.0078 60.5553 17.8067 62.0619 17.8067C63.9843 17.8067 64.8675 19.4255 64.8675 21.7232V31.6449H69.5953V21.3054C69.5953 20.8355 69.6473 20.261 69.8031 19.8955C70.1668 18.6422 71.3618 17.7545 72.6606 17.7545C74.5829 17.7545 75.5181 19.3211 75.5181 22.0887V31.6449H80.246V21.4099C80.246 16.0313 77.4924 13.8381 74.4271 13.8381C73.0243 13.8381 71.9852 14.2036 70.9981 14.778C70.1668 15.3002 69.4395 16.0313 68.816 16.9712H68.7641C67.9847 15.0391 66.0624 13.7858 63.9843 13.8381C61.9061 13.7336 59.9318 14.778 58.9447 16.6057H58.8927V14.2558H54.3207Z" fill="#0071DC"/>
<path id="Vector_2" fill-rule="evenodd" clip-rule="evenodd" d="M145.241 13.4728C146.176 13.4728 146.955 12.9506 147.059 12.3762L147.942 1.88014C147.942 0.835753 146.747 0.000244141 145.241 0.000244141C143.734 0.000244141 142.539 0.835753 142.539 1.88014L143.474 12.3762C143.526 13.0029 144.306 13.4728 145.241 13.4728ZM139.578 16.7626C140.045 15.9271 139.993 15.0394 139.526 14.6217L130.953 8.61643C130.07 8.09424 128.719 8.72087 127.992 10.0264C127.213 11.3318 127.368 12.8462 128.252 13.3162L137.759 17.7548C138.331 17.9637 139.162 17.5459 139.578 16.7626ZM150.852 16.7104C151.319 17.5459 152.099 17.9637 152.722 17.7026L162.178 13.264C163.061 12.7418 163.217 11.2796 162.438 9.97413C161.658 8.66865 160.359 8.04202 159.476 8.56421L150.904 14.6217C150.436 15.0394 150.384 15.9271 150.852 16.7104ZM145.241 26.5277C146.176 26.5277 146.955 27.0499 147.059 27.6243L147.942 38.1203C147.942 39.1647 146.747 40.0002 145.241 40.0002C143.734 40.0002 142.539 39.1647 142.539 38.1203L143.474 27.6243C143.526 26.9976 144.306 26.5277 145.241 26.5277ZM150.852 23.2901C151.319 22.4545 152.099 22.0368 152.722 22.2457L162.178 26.6843C163.061 27.2065 163.217 28.6687 162.438 29.9741C161.658 31.2796 160.359 31.9062 159.476 31.3841L150.904 25.3788C150.436 25.0133 150.384 24.0733 150.852 23.2901ZM139.578 23.2901C140.045 24.0733 139.993 25.0133 139.526 25.4311L130.953 31.4363C130.07 31.9585 128.719 31.3318 127.992 30.0264C127.213 28.7209 127.368 27.2587 128.252 26.7365L137.759 22.2979C138.331 22.0368 139.162 22.4545 139.578 23.2901ZM164.204 30.4963H164.308C164.412 30.4963 164.516 30.4441 164.516 30.3919C164.516 30.2874 164.464 30.2874 164.36 30.2874H164.256V30.4963H164.204ZM164.204 30.9663H163.996V30.1308H164.308C164.464 30.1308 164.516 30.1308 164.62 30.183C164.672 30.2352 164.724 30.2874 164.724 30.3397C164.724 30.4441 164.672 30.4963 164.568 30.5485C164.672 30.6008 164.724 30.653 164.724 30.7574C164.724 30.9141 164.776 30.9141 164.776 30.9663H164.568C164.516 30.9141 164.516 30.8619 164.516 30.7574C164.516 30.653 164.464 30.653 164.36 30.653H164.256L164.204 30.9663ZM164.308 29.8697C163.944 29.8697 163.685 30.183 163.685 30.5485C163.685 30.9141 163.944 31.2274 164.308 31.2274C164.672 31.2274 164.931 30.9141 164.931 30.5485C164.983 30.183 164.672 29.8697 164.308 29.8697ZM164.308 29.713C164.776 29.713 165.139 30.0786 165.139 30.5485C165.139 31.0185 164.776 31.3841 164.308 31.3841C163.84 31.3841 163.425 31.0185 163.425 30.5485C163.477 30.0786 163.84 29.713 164.308 29.713Z" fill="#F3B53B"/>
</g>
</g>
<defs>
<clipPath id="clip0_101_32830">
<rect width="164.384" height="40" fill="white" transform="translate(0.808228)"/>
</clipPath>
</defs>
</svg>
