<svg width="40" height="40" viewBox="0 0 40 40" fill="none" xmlns="http://www.w3.org/2000/svg">
<g id="lineicons:xbox" clip-path="url(#clip0_101_32633)">
<path id="Vector" d="M13.9375 12.125L14.75 11.1875L13.3125 9.9375C10.9375 7.8125 9.375 6.75 7.9375 6.25C6.8125 5.8125 6.6875 5.875 5.75 6.875C3.5625 9.25 1.625 13.125 1.0625 16.4375C0.625002 19.1875 0.562502 19.875 0.687502 21.1875C1.1875 25.125 2.0625 27.875 3.9375 30.625C4.75 31.75 4.875 32.0625 4.625 31.4375C4.25 30.5625 4.5625 28.4375 5.3125 26.4375C6.75 22.625 10.4375 16.4375 13.9375 12.125ZM11.0625 3.3125C11.5625 3.3125 12.375 3.3125 12.9375 3.375C14.375 3.625 16.875 4.5 18.5 5.3125C19.25 5.8125 20 6.125 20 6.0625C20 6.0625 20.8125 5.6875 21.6875 5.25C24.5625 3.8125 27.3125 3.125 29.1875 3.25L30.125 3.3125L29.5 3.125C28.1875 2.25 25.6875 1.375 23.6875 0.9375C21.75 0.5 18.125 0.5 16.1875 0.9375C14.5 1.3125 13.1875 1.75 11.6875 2.4375C10 3.3125 9.875 3.4375 11.0625 3.3125ZM20.1875 16.375C19.8125 16.3125 16.3125 19.375 13.875 22C9.5 26.6875 6.9375 30.6875 6.9375 33.0625C6.9375 34.1875 7.375 34.8125 9.5625 36.25C12.1875 38 15.1875 39.0625 18.1875 39.3125C20.625 39.5 23.625 39.25 26 38.5C28.8125 37.625 32.625 35.25 33.1875 34.125C34 32.625 32.375 29.125 28.9375 24.875C26.8125 22.25 20.875 16.5 20.1875 16.375ZM39 16.25C38.375 13.5 37.25 11 35.75 8.75C34.8125 7.4375 33.5625 6.125 33.1875 6.125C32.5625 6.125 31.25 6.5625 30.375 7.1875C29.25 7.875 28.1875 8.75 26.5625 10.1875L25.3125 11.25L26.4375 12.6875C29.9375 17.0625 33.75 23.625 34.875 27.125C35.375 28.6875 35.6875 30.3125 35.5 31.1875C35.4375 31.8125 35.4375 31.8125 35.5625 31.625C36.0625 31 37.125 29.1875 37.5625 28.1875C38.0625 26.9375 38.6875 25 39 23.625C39.4375 21.8125 39.375 18 39 16.25Z" fill="white"/>
</g>
<defs>
<clipPath id="clip0_101_32633">
<rect width="40" height="40" fill="white"/>
</clipPath>
</defs>
</svg>
