<svg width="40" height="40" viewBox="0 0 40 40" fill="none" xmlns="http://www.w3.org/2000/svg">
<g id="simple-icons:zara">
<path id="Vector" d="M14.27 11.6667L14.2733 11.6767L18.93 24.3783V12.3283H17.0133V12.2117H23.6133C26.785 12.2117 28.9983 13.8383 28.9983 16.17C28.9983 17.87 27.4817 19.2833 25.2267 19.685L24.8117 19.7367L25.2283 19.78C26.5967 19.9367 27.6833 20.3567 28.4533 21.03L28.4583 21.035L31.9017 11.6667H32.0183L32.0217 11.6767L37.9483 27.84H40V27.9567H33.47V27.84H35.3933L33.4433 22.525H29.4883V22.5283L29.51 22.59C29.6667 23.0583 29.7467 23.55 29.7417 24.045V26.0383C29.7417 27.0633 30.1933 28.1017 31.0583 28.1017C31.565 28.1017 31.97 27.9233 32.4533 27.4817L32.5217 27.545C31.9983 28.0983 31.3633 28.3333 30.4117 28.3333C29.695 28.3333 29.0783 28.16 28.585 27.82L28.4917 27.7533C27.8417 27.26 27.4183 26.4567 27.2367 25.3617L27.2067 25.185L27.1767 24.9183L27.1733 24.8717L26.0833 27.8383H27.63V27.955H24.3933V27.8383H25.9567L27.1533 24.5817V24.5733C27.1406 24.3814 27.1333 24.1891 27.1317 23.9967V22.5733C27.1317 20.825 25.8317 19.8233 23.565 19.8233H21.3367V27.84H23.2667V27.9567H15.7217V27.84H17.645L15.695 22.525H10.2867L8.35667 27.7817L8.43667 27.7683C10.9717 27.3317 12.1367 25.3967 12.1533 23.36H12.27V27.9567H0L9.10833 12.3283H5.44667C2.41 12.3283 1.03667 14.6733 1.015 17.0117H0.9V12.2117H11.9567L11.89 12.3283L2.84833 27.84H7.605C7.72278 27.84 7.84056 27.835 7.95833 27.825L8.07833 27.815L8.22833 27.7983L14.1517 11.6667H14.27ZM30.7417 15.1583L28.5533 21.1183L28.565 21.13L28.6767 21.24C28.9983 21.5683 29.255 21.9567 29.43 22.38L29.4417 22.4083H33.4L30.7417 15.1583ZM12.995 15.1583L10.33 22.4083H15.6533L12.995 15.1583ZM23.0383 12.3283H21.3383V19.7067H23.565C25.82 19.7067 26.51 18.885 26.51 16.195C26.51 13.6667 25.31 12.3283 23.0383 12.3283Z" fill="white"/>
</g>
</svg>
